<?xml version="1.0" encoding="UTF-8" standalone="no"?>
<svg xmlns:rdf="http://www.w3.org/1999/02/22-rdf-syntax-ns#" xmlns="http://www.w3.org/2000/svg" height="403.03mm" width="497.67mm" version="1.1" xmlns:cc="http://creativecommons.org/ns#" xmlns:dc="http://purl.org/dc/elements/1.1/" viewBox="0 0 1763.401 1428.0524">
<g transform="translate(213.13 130.24)">
<path style="enable-background:new" fill="#fc0" d="m-211.57 1297.5c-1.6327-0.6552-1.5617 1.6864-1.5617-51.531 0-50.869 0-50.71 1.2118-51.361 0.3546-0.1898 33.466-0.2937 93.568-0.2937h93.02v-608.57-608.57l-15.178-51.645c-15.919-54.167-15.576-52.864-14.31-54.286 1.3418-1.5074-6.1906-1.4214 124.55-1.4214h122.09l0.3121 0.975c0.1716 0.53625 15.508 55.987 34.081 123.22 18.573 67.237 33.842 122.49 33.931 122.77 0.1545 0.49941-5.7981 0.525-122.11 0.525-67.249 0-122.27-0.0722-122.27-0.16035 0-0.2094-19.436-66.358-19.785-67.34-0.1567-0.43953-0.2772 236.29-0.2911 571.87l-0.024 572.62h67.8 67.8v-342.14-342.14l-17.85-60.738c-9.8175-33.406-17.85-60.882-17.85-61.059 0-0.22737 34.886-0.29889 119.76-0.24546l119.76 0.0754 30.227 109.35c16.625 60.142 30.231 109.45 30.236 109.57 0.01 0.1238-53.04 0.225-117.88 0.225h-117.89l-0.307-1.125c-0.1689-0.6187-1.7863-6.1199-3.5943-12.225l-3.2872-11.1-0.017 305.77-0.017 305.78h698.2 698.2l0.6523 0.6943 0.6523 0.6944v50.131c0 53.373 0.059 50.879-1.2215 51.541-1.0047 0.5195-1759.3 0.644-1760.6 0.1246zm526.7-169.72c-2.9512-1.5418-0.052 7.732-38.62-123.51l-35.352-120.3 115.35-0.075c63.444-0.041 115.42-0.01 115.51 0.077 0.14781 0.1479 67.101 242.18 67.449 243.82l0.17463 0.825h-111.45-111.45l-1.6041-0.838zm270.64 0.7158c0-0.067-15.188-55.086-33.75-122.26-18.562-67.178-33.75-122.2-33.75-122.28 0-0.075 54.106-0.1369 120.24-0.1369h120.24l33.711 122.03c18.541 67.114 33.772 122.19 33.847 122.4 0.1089 0.2996-24.057 0.375-120.2 0.375-66.183 0-120.33-0.055-120.33-0.1222zm286.64-0.2528c-0.076-0.2063-15.261-55.118-33.744-122.02-18.483-66.908-33.667-121.82-33.742-122.03-0.1096-0.2996 22.141-0.3741 110.63-0.3704h110.77l33.244 120.37c18.284 66.204 33.497 121.28 33.806 122.4l0.5617 2.025h-110.69c-88.278 0-110.72-0.076-110.83-0.375zm233.89-121.65c-18.545-67.113-33.778-122.19-33.85-122.4-0.1051-0.3002 22.429-0.3603 112.47-0.3l112.6 0.075 35.319 120.15c19.425 66.082 35.322 120.53 35.327 120.99 0.011 1.2027-0.7611 2.527-1.7822 3.055-0.782 0.4044-13.432 0.4549-113.62 0.4537h-112.74l-33.719-122.02zm-874.7-155.28c-0.1184-0.3712-14.212-48.296-31.319-106.5l-31.103-105.82h117.64 117.64l28.907 104.62c15.899 57.544 29.148 105.47 29.442 106.5l0.53445 1.875h-115.76-115.76l-0.2153-0.675zm248.4-105.75-29.406-106.42 120.14-0.075c66.076-0.042 120.21-0.01 120.29 0.078 0.11295 0.113 57.678 208.05 58.739 212.17l0.17349 0.675h-120.27-120.27l-29.406-106.42zm315.81 105.45c-0.3867-1.2176-58.537-211.71-58.537-211.89 0-0.4956 221.37-0.1037 221.52 0.3921 0.087 0.2888 13.263 47.978 29.281 105.98 16.018 57.998 29.195 105.69 29.283 105.98 0.1519 0.4994-5.2507 0.525-110.54 0.525h-110.7l-0.3097-0.975zm267.71 0.6c-0.1597-0.4393-58.209-210.58-58.508-211.8l-0.2019-0.825h110.36 110.36l31.174 106.12c17.146 58.369 31.232 106.29 31.302 106.5 0.1026 0.2996-22.451 0.375-112.11 0.375-89.52 0-112.27-0.076-112.38-0.375zm-622.18-246c-0.249-0.8662-13.823-49.972-30.165-109.12-16.342-59.152-29.786-107.79-29.876-108.07-0.1554-0.49941 5.7016-0.525 120.11-0.525h120.27l0.33162 1.125c0.1824 0.61875 13.644 49.32 29.916 108.22 16.271 58.905 29.771 107.74 30 108.52l0.41562 1.425h-120.28-120.28l-0.4528-1.575zm256.86-107.85c-16.626-60.184-30.226-109.53-30.222-109.65 0.005-0.12375 49.797-0.225 110.65-0.225h110.64l30.113 108.97c16.562 59.936 30.172 109.28 30.244 109.65l0.1309 0.675h-110.66-110.66l-30.23-109.42zm297.69 109.28c0-0.123-57.545-208.51-59.833-216.67l-0.6937-2.475h108.2 108.2l32.031 109c17.617 59.949 32.107 109.29 32.201 109.65l0.1706 0.6525h-110.14c-60.574 0-110.14-0.068-110.14-0.1503zm-910.35-252.68c-0.2741-0.94875-13.919-47.396-30.321-103.21-16.403-55.819-29.823-101.62-29.823-101.78 0-0.18015 44.938-0.25758 121.87-0.21l121.87 0.0754 28.571 103.35c15.714 56.842 28.575 103.38 28.58 103.42 0 0.0412-54.048 0.075-120.12 0.075h-120.13l-0.4981-1.725zm286.79 1.35c-0.078-0.20625-12.9-46.541-28.492-102.97-15.592-56.426-28.425-102.83-28.518-103.12-0.162-0.51027 4.9954-0.53316 120.14-0.53316h120.31l0.34125 1.275c0.18771 0.70125 13.018 47.153 28.512 103.23 15.494 56.073 28.17 102.07 28.17 102.22 0 0.4596-240.29 0.35811-240.46-0.10158zm286.34-0.9c-0.18678-0.70125-13.017-47.16-28.512-103.24-15.495-56.081-28.172-102.08-28.172-102.22 0-0.14448 48.855-0.25872 110.65-0.25872h110.65l28.412 102.82c15.627 56.554 28.491 103.13 28.588 103.5l0.1763 0.675h-110.72-110.72l-0.33954-1.275zm267.48-0.3c-0.2479-0.86625-13.014-47.07-28.369-102.67-15.355-55.605-28.041-101.47-28.192-101.92l-0.2741-0.825h106.13 106.13l30.216 102.82c16.619 56.554 30.295 103.13 30.391 103.5l0.1751 0.675h-107.88-107.88l-0.4509-1.575zm-619.82-237.6c-0.1869-0.50346-68.242-246.82-68.242-246.99 0-0.0747 54.07-0.1359 120.16-0.1359h120.16l0.28593 0.675c0.33915 0.80072 68.101 246.1 68.101 246.53 0 0.47793-240.28 0.39624-240.46-0.0817zm286.66 0.25353c0-0.0668-15.322-55.574-34.05-123.35s-34.05-123.41-34.05-123.63c0-0.44529 220.93-0.61974 221.2-0.17467 0.15309 0.25057 68.298 246.78 68.298 247.08 0 0.10533-49.815 0.19152-110.7 0.19152s-110.7-0.0547-110.7-0.12147zm267.19-1.4535c-0.2497-0.86625-15.597-56.38-34.106-123.36-18.508-66.984-33.718-121.96-33.799-122.17-0.1897-0.49446 201.87-0.57459 203.65-0.0808 1.4149 0.39302 2.8502 1.3856 3.9117 2.7052 0.71553 0.88944 72.253 242.72 72.253 244.25 0 0.13296-47.578 0.24177-105.73 0.24177h-105.73l-0.4539-1.575z"/>
</g>
</svg>
